<?xml version="1.0" encoding="UTF-8" standalone="no"?>
<!-- Created with Inkscape (http://www.inkscape.org/) -->

<svg
   xmlns:dc="http://purl.org/dc/elements/1.1/"
   xmlns:cc="http://creativecommons.org/ns#"
   xmlns:rdf="http://www.w3.org/1999/02/22-rdf-syntax-ns#"
   xmlns:svg="http://www.w3.org/2000/svg"
   xmlns="http://www.w3.org/2000/svg"
   xmlns:sodipodi="http://sodipodi.sourceforge.net/DTD/sodipodi-0.dtd"
   xmlns:inkscape="http://www.inkscape.org/namespaces/inkscape"
   width="255.91199"
   height="118.73327"
   viewBox="0 0 255.91199 118.73327"
   version="1.1"
   id="SVGRoot"
   sodipodi:docname="module_template_v3.svg"
   inkscape:version="0.92.1 r15371">
  <sodipodi:namedview
     id="base"
     pagecolor="#ffffff"
     bordercolor="#666666"
     borderopacity="1.0"
     inkscape:pageopacity="0.0"
     inkscape:pageshadow="2"
     inkscape:zoom="1.3139283"
     inkscape:cx="-36.696906"
     inkscape:cy="39.971008"
     inkscape:document-units="px"
     inkscape:current-layer="layer1"
     showgrid="false"
     inkscape:window-width="1855"
     inkscape:window-height="1056"
     inkscape:window-x="65"
     inkscape:window-y="1104"
     inkscape:window-maximized="1"
     inkscape:grid-bbox="true"
     fit-margin-top="0"
     fit-margin-left="0"
     fit-margin-right="0"
     fit-margin-bottom="0" />
  <defs
     id="defs5967" />
  <metadata
     id="metadata5970">
    <rdf:RDF>
      <cc:Work
         rdf:about="">
        <dc:format>image/svg+xml</dc:format>
        <dc:type
           rdf:resource="http://purl.org/dc/dcmitype/StillImage" />
        <dc:title></dc:title>
      </cc:Work>
    </rdf:RDF>
  </metadata>
  <g
     id="layer1"
     inkscape:groupmode="layer"
     inkscape:label="Layer 1"
     transform="translate(-0.20710677,-70.238022)">
    <rect
       style="opacity:1;fill:#b0b0b0;fill-opacity:1;stroke:#dddddd;stroke-width:1;stroke-miterlimit:4;stroke-dasharray:none;stroke-opacity:1"
       id="rect6612"
       width="254.91197"
       height="33.410801"
       x="0.70710677"
       y="70.738022" />
    <rect
       style="opacity:1;fill:#f2f2f2;fill-opacity:1;stroke:#dddddd;stroke-width:1;stroke-miterlimit:4;stroke-dasharray:none;stroke-opacity:1"
       id="rect6610"
       width="254.91199"
       height="28.107491"
       x="0.70710677"
       y="104.14882" />
    <rect
       style="opacity:1;fill:#fefefe;fill-opacity:1;stroke:#dddddd;stroke-width:1;stroke-miterlimit:4;stroke-dasharray:none;stroke-opacity:1"
       id="rect6610-9"
       width="254.91199"
       height="28.107491"
       x="0.70710677"
       y="132.25632" />
    <rect
       style="opacity:1;fill:#f2f2f2;fill-opacity:1;stroke:#dddddd;stroke-width:1;stroke-miterlimit:4;stroke-dasharray:none;stroke-opacity:1"
       id="rect6610-2"
       width="254.91199"
       height="28.107491"
       x="0.70710945"
       y="160.3638" />
    <g
       id="g5723"
       transform="translate(0.81213,-198.31934)">
      <path
         style="fill:#fefefe;stroke-width:0.52368748"
         d="M 4.75,132.16807 V 75.086136 H 129.38762 254.02524 V 132.16807 189.25 H 129.38762 4.75 Z"
         id="path5739"
         inkscape:connector-curvature="0" />
      <path
         style="fill:#f8f8f8;stroke-width:0.52368748"
         d="M 4.75,132.16807 V 75.086136 H 129.38762 254.02524 V 132.16807 189.25 H 129.38762 4.75 Z m 247.05888,14.53232 -0.14023,-12.69942 H 129.64946 7.6302811 L 7.4900488,146.70039 7.3498165,159.39981 H 129.64946 251.94911 Z"
         id="path5737"
         inkscape:connector-curvature="0" />
      <path
         style="fill:#f5f5f5;stroke-width:0.52368748"
         d="M 8.1014223,187.97851 C 7.2084374,187.58978 6.3247148,186.87275 6.1375942,186.38512 5.9504736,185.89749 5.797375,161.40379 5.797375,131.95468 V 78.410833 L 7.0094241,77.272172 8.2214732,76.133511 H 129.5761 250.93072 l 1.28542,1.285414 1.28541,1.285415 v 53.47435 c 0,33.87935 -0.18784,53.82534 -0.51263,54.43221 -0.28195,0.52683 -1.25975,1.21832 -2.17289,1.53664 -1.19413,0.41627 -35.27175,0.57301 -121.37563,0.55827 -99.30179,-0.017 -119.9922229,-0.14102 -121.3389777,-0.7273 z M 251.4068,172.75384 V 160.44719 H 129.64946 7.8921249 v 12.30665 12.30666 H 129.64946 251.4068 Z m 0.40208,-26.05345 -0.14023,-12.69942 H 129.64946 7.6302811 L 7.4900488,146.70039 7.3498165,159.39981 H 129.64946 251.94911 Z m -0.40208,-25.7916 V 108.60213 H 129.64946 7.8921249 v 12.30666 12.30665 H 129.64946 251.4068 Z"
         id="path5735"
         inkscape:connector-curvature="0" />
      <path
         style="fill:#f1f1f1;stroke-width:0.52368748"
         d="m 7.3684374,186.63156 c -1.0336539,-1.03366 -1.047375,-1.74562 -1.047375,-54.34697 0,-47.392724 0.090347,-53.428582 0.8152264,-54.463493 L 7.9515152,76.657198 H 129.61504 c 112.52509,0 121.7175,0.06504 122.38225,0.865898 0.5965,0.718641 0.74362,9.825038 0.86509,53.547034 0.0805,28.97463 0.0212,53.1949 -0.13171,53.82282 -0.15293,0.62793 -0.64803,1.51165 -1.10022,1.96383 -0.74233,0.74234 -12.58741,0.82215 -122.01839,0.82215 -120.4979977,0 -121.2022819,-0.006 -122.2436226,-1.04737 z M 251.4068,172.75384 V 160.44719 H 129.64946 7.8921249 v 12.30665 12.30666 H 129.64946 251.4068 Z m 0.40208,-26.05345 -0.14023,-12.69942 H 129.64946 7.6302811 L 7.4900488,146.70039 7.3498165,159.39981 H 129.64946 251.94911 Z m -0.40208,-26.05345 v -12.5685 H 129.64946 7.8921249 v 12.5685 12.5685 H 129.64946 251.4068 Z"
         id="path5733"
         inkscape:connector-curvature="0" />
      <path
         style="fill:#e9e9e9;stroke-width:0.52368748"
         d="m 7.5805243,186.05285 c -0.9673037,-1.06889 -0.9976181,-2.72515 -0.9976181,-54.50573 0,-52.259065 0.021782,-53.419265 1.0165452,-54.14663 0.8709798,-0.636855 18.3508006,-0.743292 122.0689386,-0.743292 116.60851,0 121.08421,0.03516 121.91909,0.957689 0.79455,0.877965 0.8667,5.40504 0.8667,54.382323 0,51.09185 -0.0419,53.46249 -0.95769,54.29134 -0.88532,0.8012 -10.09945,0.8667 -121.93802,0.8667 H 8.5781424 Z M 251.4068,172.49089 V 159.92128 L 129.51854,160.05332 7.6302811,160.18534 7.4898812,172.62292 7.3494813,185.0605 H 129.37814 251.4068 Z m 0.40208,-25.7905 -0.14023,-12.69942 H 129.64946 7.6302811 L 7.4900488,146.70039 7.3498165,159.39981 H 129.64946 251.94911 Z m -0.40208,-26.05345 v -12.5685 H 129.38762 7.3684374 v 12.5685 12.5685 H 129.38762 251.4068 Z M 7.7596214,85.92134 c -0.089357,-3.799151 -0.1622379,-0.544746 -0.1619571,7.232012 2.807e-4,7.776758 0.073391,10.885158 0.1624675,6.907548 0.089077,-3.977605 0.088847,-10.340408 -5.104e-4,-14.13956 z"
         id="path5731"
         inkscape:connector-curvature="0" />
      <path
         style="fill:#e3e3e3;stroke-width:0.52368748"
         d="M 7.3868627,185.61861 C 7.0233836,184.93945 6.8447499,167.08904 6.8447499,131.44666 V 78.287651 L 8.0086486,77.472425 C 9.0538875,76.740311 21.46708,76.657198 129.76599,76.657198 c 119.89519,0 120.5995,0.0061 121.64081,1.047375 1.03361,1.033607 1.04738,1.745625 1.04738,54.164247 0,47.58981 -0.0856,53.2025 -0.82294,53.9398 -0.74339,0.7434 -12.56116,0.82294 -122.2626,0.82294 -119.5278657,0 -121.4481989,-0.016 -121.9817773,-1.01295 z M 251.80888,172.62292 251.94911,159.9235 H 129.65877 7.3684374 v 12.48122 c 0,6.86467 0.1576033,12.63882 0.3502297,12.83144 0.1926263,0.19263 55.1601719,0.29082 122.1501029,0.21821 l 121.79988,-0.13203 z m 0,-25.92253 -0.14023,-12.69942 -122.15011,-0.13202 -122.1501026,-0.13203 v 12.83145 12.83144 H 129.65877 251.94911 Z m 0.12161,-26.05345 v -12.5685 H 129.64946 7.3684374 v 12.5685 12.5685 H 129.64946 251.93049 Z m -0.24852,-27.493588 0.0133,-14.13956 -0.1528,14.008639 -0.15278,14.008639 H 129.64933 7.9089582 L 7.760846,92.760587 7.6127337,78.490104 7.4905855,93.023535 7.3684374,107.55697 129.51854,107.42494 l 122.15011,-0.13203 0.0133,-14.139558 z M 215.79605,77.569375 C 234.6619,77.495507 195.89593,77.381486 129.64946,77.315996 63.402998,77.250507 8.9292412,77.37006 8.5966715,77.58167 8.0543787,77.926726 126.32163,77.919708 215.79605,77.569375 Z"
         id="path5729"
         inkscape:connector-curvature="0" />
      <path
         style="fill:#dddddd;stroke-width:0.52368748"
         d="m 8.4158124,186.10787 c -0.5083729,-0.32853 42.2663986,-0.50765 121.2336476,-0.50765 78.96726,0 121.74203,0.17912 121.23366,0.50765 -0.50135,0.32399 -44.36115,0.50765 -121.23366,0.50765 -76.872499,0 -120.7323052,-0.18366 -121.2336476,-0.50765 z M 7.0880235,131.64438 C 7.0887452,102.40953 7.1558614,85.029651 7.2371706,93.022431 L 7.3850055,107.55476 H 129.6492 251.91338 l 0.1484,-14.008642 c 0.0816,-7.704751 0.14895,9.557292 0.14961,38.360102 5.2e-4,28.80281 -0.0666,46.88967 -0.1495,40.19301 l -0.1507,-12.17573 H 129.64929 7.3873935 l -0.1503411,12.43758 c -0.082688,6.84066 -0.1497507,-11.48185 -0.1490289,-40.7167 z m 244.8320965,2.09475 -3.1e-4,-25.66069 H 129.64412 7.3684374 v 25.66069 25.66068 H 129.64444 251.92043 Z M 7.777139,92.317362 C 7.693434,83.930945 7.833976,77.477958 8.1039609,77.311356 c 0.2605239,-0.160764 0.3419358,-0.07914 0.1809154,0.181381 -0.1743396,0.282074 48.6504017,0.419375 120.7023037,0.339431 89.27306,-0.09905 121.18181,0.02073 121.70734,0.456888 0.56825,0.471604 0.71228,3.43732 0.71228,14.666576 V 107.03107 H 129.6654 7.9239969 Z"
         id="path5727"
         inkscape:connector-curvature="0" />
      <path
         style="fill:#d8d8d8;stroke-width:0.52368748"
         d="m 7.8921249,92.685694 c 0,-12.59801 0.1009003,-14.384095 0.8283623,-14.663248 0.4555992,-0.17483 54.9636098,-0.317873 121.1289128,-0.317873 92.86884,0 120.44385,0.143298 120.92898,0.628425 0.45751,0.45751 0.62842,4.445525 0.62842,14.663248 V 107.03107 H 129.64946 7.8921249 Z"
         id="path5725"
         inkscape:connector-curvature="0" />
    </g>
    <text
       xml:space="preserve"
       style="font-style:normal;font-weight:normal;font-size:29.33333397px;line-height:1.25;font-family:sans-serif;letter-spacing:0px;word-spacing:0px;fill:#000000;fill-opacity:1;stroke:none"
       x="13.655884"
       y="-100.83675"
       id="text5288"><tspan
         sodipodi:role="line"
         id="tspan5286"
         x="13.655884"
         y="-100.83675"
         style="font-style:normal;font-variant:normal;font-weight:bold;font-stretch:normal;font-size:16px;font-family:sans-serif;">{[moduleName]}</tspan></text>
    <text
       xml:space="preserve"
       style="font-style:normal;font-weight:normal;font-size:29.33333397px;line-height:1.25;font-family:sans-serif;letter-spacing:0px;word-spacing:0px;fill:#000000;fill-opacity:1;stroke:none"
       x="13.655563"
       y="-72.836365"
       id="text5288-2"><tspan
         sodipodi:role="line"
         id="tspan5286-7"
         x="13.655563"
         y="-72.836365"
         style="font-size:13.33333302px">Bytes IN/OUT</tspan></text>
    <text
       xml:space="preserve"
       style="font-style:normal;font-weight:normal;font-size:29.33333397px;line-height:1.25;font-family:sans-serif;letter-spacing:0px;word-spacing:0px;fill:#000000;fill-opacity:1;stroke:none"
       x="13.655563"
       y="-46.173798"
       id="text5288-2-0"><tspan
         sodipodi:role="line"
         id="tspan5286-7-9"
         x="13.655563"
         y="-46.173798"
         style="font-size:13.33333302px">FlowItem IN/OUT</tspan></text>
    <text
       xml:space="preserve"
       style="font-style:normal;font-weight:normal;font-size:29.33333397px;line-height:1.25;font-family:sans-serif;letter-spacing:0px;word-spacing:0px;fill:#000000;fill-opacity:1;stroke:none"
       x="13.655563"
       y="-20.06897"
       id="text5288-2-0-3"><tspan
         sodipodi:role="line"
         id="tspan5286-7-9-6"
         x="13.655563"
         y="-20.06897"
         style="font-size:13.33333302px">Processing time</tspan></text>
    <text
       xml:space="preserve"
       style="font-style:normal;font-weight:normal;font-size:29.33333397px;line-height:1.25;font-family:sans-serif;letter-spacing:0px;word-spacing:0px;fill:#000000;fill-opacity:1;stroke:none"
       x="146.50032"
       y="-72.836243"
       id="text5288-2-06"><tspan
         sodipodi:role="line"
         id="tspan5286-7-2"
         x="146.50032"
         y="-72.836243"
         style="font-size:13.33333302px">{[bytes]}</tspan></text>
    <text
       xml:space="preserve"
       style="font-style:normal;font-weight:normal;font-size:29.33333397px;line-height:1.25;font-family:sans-serif;letter-spacing:0px;word-spacing:0px;fill:#000000;fill-opacity:1;stroke:none"
       x="146.50002"
       y="-47.710251"
       id="text5288-2-06-6"><tspan
         sodipodi:role="line"
         id="tspan5286-7-2-1"
         x="146.50002"
         y="-47.710251"
         style="font-size:13.33333302px">{[flowItem]}</tspan></text>
    <text
       xml:space="preserve"
       style="font-style:normal;font-weight:normal;font-size:29.33333397px;line-height:1.25;font-family:sans-serif;letter-spacing:0px;word-spacing:0px;fill:#000000;fill-opacity:1;stroke:none"
       x="146.50002"
       y="-20.069237"
       id="text5288-2-06-8"
       inkscape:transform-center-x="11.5"
       inkscape:transform-center-y="-29.5"><tspan
         sodipodi:role="line"
         id="tspan5286-7-2-7"
         x="146.50002"
         y="-20.069237"
         style="font-size:13.33333302px">{[time]}</tspan></text>
    <text
       xml:space="preserve"
       style="font-style:normal;font-weight:normal;font-size:29.33333397px;line-height:1.25;font-family:sans-serif;letter-spacing:0px;word-spacing:0px;fill:#000000;fill-opacity:1;stroke:none"
       x="3.1974003"
       y="91.834099"
       id="text5288-0"><tspan
         sodipodi:role="line"
         id="tspan5286-2"
         x="3.1974003"
         y="91.834099"
         style="font-style:normal;font-variant:normal;font-weight:bold;font-stretch:normal;font-size:16px;font-family:sans-serif;">{[moduleName]}</tspan></text>
    <text
       xml:space="preserve"
       style="font-style:normal;font-weight:normal;font-size:29.33333397px;line-height:1.25;font-family:sans-serif;letter-spacing:0px;word-spacing:0px;fill:#000000;fill-opacity:1;stroke:none"
       x="6.1116295"
       y="122.54462"
       id="text5288-2-3"><tspan
         sodipodi:role="line"
         id="tspan5286-7-7"
         x="6.1116295"
         y="122.54462"
         style="font-size:13.33333302px">Bytes IN/OUT</tspan></text>
    <text
       xml:space="preserve"
       style="font-style:normal;font-weight:normal;font-size:29.33333397px;line-height:1.25;font-family:sans-serif;letter-spacing:0px;word-spacing:0px;fill:#000000;fill-opacity:1;stroke:none"
       x="6.1116295"
       y="151.2072"
       id="text5288-2-0-5"><tspan
         sodipodi:role="line"
         id="tspan5286-7-9-9"
         x="6.1116295"
         y="151.2072"
         style="font-size:13.33333302px">FlowItem IN/OUT</tspan></text>
    <text
       xml:space="preserve"
       style="font-style:normal;font-weight:normal;font-size:29.33333397px;line-height:1.25;font-family:sans-serif;letter-spacing:0px;word-spacing:0px;fill:#000000;fill-opacity:1;stroke:none"
       x="6.1116295"
       y="179.31203"
       id="text5288-2-0-3-2"><tspan
         sodipodi:role="line"
         id="tspan5286-7-9-6-2"
         x="6.1116295"
         y="179.31203"
         style="font-size:13.33333302px">Processing time</tspan></text>
    <text
       xml:space="preserve"
       style="font-style:normal;font-weight:normal;font-size:29.33333397px;line-height:1.25;font-family:sans-serif;letter-spacing:0px;word-spacing:0px;fill:#000000;fill-opacity:1;stroke:none"
       x="138.95639"
       y="122.54475"
       id="text5288-2-06-89"><tspan
         sodipodi:role="line"
         id="tspan5286-7-2-73"
         x="138.95639"
         y="122.54475"
         style="font-size:13.33333302px">{[bytes]}</tspan></text>
    <text
       xml:space="preserve"
       style="font-style:normal;font-weight:normal;font-size:29.33333397px;line-height:1.25;font-family:sans-serif;letter-spacing:0px;word-spacing:0px;fill:#000000;fill-opacity:1;stroke:none"
       x="138.95609"
       y="149.67075"
       id="text5288-2-06-6-6"><tspan
         sodipodi:role="line"
         id="tspan5286-7-2-1-1"
         x="138.95609"
         y="149.67075"
         style="font-size:13.33333302px">{[flowItem]}</tspan></text>
    <text
       xml:space="preserve"
       style="font-style:normal;font-weight:normal;font-size:29.33333397px;line-height:1.25;font-family:sans-serif;letter-spacing:0px;word-spacing:0px;fill:#000000;fill-opacity:1;stroke:none"
       x="138.95609"
       y="179.31175"
       id="text5288-2-06-8-2"
       inkscape:transform-center-x="11.5"
       inkscape:transform-center-y="-29.5"><tspan
         sodipodi:role="line"
         id="tspan5286-7-2-7-9"
         x="138.95609"
         y="179.31175"
         style="font-size:13.33333302px">{[time]}</tspan></text>
  </g>
</svg>
